PathFileType	4	(X/Y/Z)	1103211_Cal01.trc	
DataRate	CameraRate	NumFrames	NumMarkers	Units	OrigDataRate	OrigDataStartFrame	OrigNumFrames
300	300	5	77	mm	300	44	337
Frame#	Time	CLAV			STRN			RSHO			LSHO			C7			T10			RBAK			RASI			LASI			RPSI			LPSI			LGTR			RGTR			LHJC			RHJC			LMFC			RMFC			LLTP			RLTP			LMTP			RMTP			LANK			RANK			LMMA			RMMA			LHEE			RHEE			LMT5			RMT5			LTOE			RTOE			RELB			RWRA			RWRB			RFIN			LELB			LWRB			LWRA			LFIN			RFP1			RFP2			RFP3			RFM1			RFM2			RFM3			RFA1			RFA2			RFA3			LFP1			LFP2			LFP3			LFM1			LFM2			LFM3			LFA1			LFA2			LFA3			LKNE			RKNE			RTP1			RTP2			RTP3			RTA1			RTA2			RTA3			LTP1			LTP2			LTP3			LTA1			LFHD			LBHD			RFHD			RBHD			LUPA			LFRA			RUPA			RFRA			
		X1	Y1	Z1	X2	Y2	Z2	X3	Y3	Z3	X4	Y4	Z4	X5	Y5	Z5	X6	Y6	Z6	X7	Y7	Z7	X8	Y8	Z8	X9	Y9	Z9	X10	Y10	Z10	X11	Y11	Z11	X12	Y12	Z12	X13	Y13	Z13	X14	Y14	Z14	X15	Y15	Z15	X16	Y16	Z16	X17	Y17	Z17	X18	Y18	Z18	X19	Y19	Z19	X20	Y20	Z20	X21	Y21	Z21	X22	Y22	Z22	X23	Y23	Z23	X24	Y24	Z24	X25	Y25	Z25	X26	Y26	Z26	X27	Y27	Z27	X28	Y28	Z28	X29	Y29	Z29	X30	Y30	Z30	X31	Y31	Z31	X32	Y32	Z32	X33	Y33	Z33	X34	Y34	Z34	X35	Y35	Z35	X36	Y36	Z36	X37	Y37	Z37	X38	Y38	Z38	X39	Y39	Z39	X40	Y40	Z40	X41	Y41	Z41	X42	Y42	Z42	X43	Y43	Z43	X44	Y44	Z44	X45	Y45	Z45	X46	Y46	Z46	X47	Y47	Z47	X48	Y48	Z48	X49	Y49	Z49	X50	Y50	Z50	X51	Y51	Z51	X52	Y52	Z52	X53	Y53	Z53	X54	Y54	Z54	X55	Y55	Z55	X56	Y56	Z56	X57	Y57	Z57	X58	Y58	Z58	X59	Y59	Z59	X60	Y60	Z60	X61	Y61	Z61	X62	Y62	Z62	X63	Y63	Z63	X64	Y64	Z64	X65	Y65	Z65	X66	Y66	Z66	X67	Y67	Z67	X68	Y68	Z68	X69	Y69	Z69	X70	Y70	Z70	X71	Y71	Z71	X72	Y72	Z72	X73	Y73	Z73	X74	Y74	Z74	X75	Y75	Z75	X76	Y76	Z76	X77	Y77	Z77	

43	0.14000	190.43376	1375.50330	-47.41609	242.30788	1204.70544	-50.69765	89.96147	1425.11731	89.61557	88.28899	1433.77869	-191.90755	50.64944	1429.65051	-46.22011	15.70535	1135.15784	-51.75490	-7.30357	1327.61279	45.36792	181.10747	946.85938	61.86353	176.52794	953.16589	-165.47606	0.47240	956.09607	0.21175	-1.03159	955.03638	-97.87196	110.31291	869.03326	-216.61797	110.66869	858.21002	119.51978	104.78801	872.92279	-132.32961	104.52736	868.57751	26.59688	63.82062	466.80396	-83.60881	65.65375	471.79745	-15.33092	72.08482	447.55222	-212.19728	77.94336	450.99551	111.67891	62.19376	438.01846	-92.91512	65.95001	441.38156	-6.34148	57.51974	91.07791	-207.00914	55.91983	87.34523	108.53784	73.49745	98.62597	-121.34044	80.59959	92.84181	24.93716	-14.72689	59.91252	-159.33568	-15.87902	62.93970	60.09976	168.58130	30.89803	-243.57018	165.73586	40.85294	157.66234	212.95561	64.89188	-176.12105	214.55092	65.16928	91.06900	63.54932	1298.46692	348.28900	94.49394	1313.64624	593.21375	60.79021	1248.63342	587.78162	58.34085	1302.50500	667.97046	43.68404	1302.92615	-436.02008	37.67278	1264.89246	-685.36371	70.21088	1326.37231	-679.44702	31.40382	1321.29675	-758.78503	108.64191	762.62201	132.05853	106.42474	669.25305	131.25131	100.11336	577.76929	118.72296	170.80133	818.13910	113.14874	177.52888	717.35236	118.47603	174.45760	625.08490	108.19508	215.03056	771.37097	66.87872	209.28093	671.09918	65.45425	191.17033	580.71051	52.52058	107.82281	769.30450	-228.45119	102.10402	659.70746	-223.13145	93.35722	582.99939	-212.92769	165.68602	824.88861	-210.56633	167.09906	718.86298	-217.27275	160.02191	625.57312	-209.12062	216.90797	769.33191	-158.55894	207.98595	665.81598	-147.52693	186.91829	576.15057	-141.89034	77.90964	485.38638	-208.99962	88.70847	479.09192	109.30527	64.24182	374.17886	128.75844	55.16641	268.92761	125.75566	54.60078	182.66905	114.52338	124.69089	393.22827	63.75748	116.29823	315.60437	62.77354	108.11816	232.90698	65.06131	68.15776	360.28415	-228.49095	65.52798	279.07220	-225.41032	62.31602	194.05995	-216.68422	121.05362	400.73947	-155.90504	188.90999	1634.79187	-108.62700	75.53650	1608.31958	-128.32100	179.89751	1626.17090	39.17406	43.59906	1597.26819	35.47368	64.19041	1394.68030	-292.39850	26.88139	1308.56519	-584.47296	60.07439	1338.37366	274.33557	47.34023	1295.53223	432.48874	
44	0.14333	190.42665	1375.49207	-47.38686	242.31123	1204.68884	-50.70003	89.97070	1425.12012	89.61215	88.30415	1433.77612	-191.90111	50.64944	1429.65015	-46.22020	15.72958	1135.15820	-51.77098	-7.31480	1327.59241	45.33797	181.14241	946.85095	61.87286	176.54430	953.16241	-165.47084	0.50259	956.09338	0.23589	-1.00945	955.02014	-97.85112	110.31961	869.00464	-216.58403	110.68117	858.18774	119.51114	104.80859	872.91718	-132.31801	104.56088	868.56842	26.60840	63.82713	466.59457	-83.51421	65.71854	471.77985	-15.29982	72.08334	447.55023	-212.20280	77.96271	450.96295	111.67099	62.23216	437.98309	-92.91869	65.94742	441.41318	-6.33409	57.46358	91.05502	-206.98384	55.90970	87.30779	108.55357	73.53993	98.58788	-121.34627	80.61363	92.82872	24.94218	-14.74134	59.91914	-159.32283	-15.89389	62.96329	60.08492	168.59506	30.86120	-243.55620	165.73395	40.84561	157.69359	212.95897	64.87236	-176.12367	214.55125	65.14500	91.08698	63.46227	1298.48792	348.32849	94.46616	1313.64197	593.22150	60.74594	1248.64551	587.76361	58.30634	1302.52002	667.97595	43.68199	1302.93213	-436.01654	37.72956	1264.86572	-685.40057	70.21066	1326.37903	-679.44788	31.40514	1321.28088	-758.78711	108.66168	762.60187	132.03357	106.44138	669.24255	131.24564	100.12419	577.74878	118.71684	170.85498	818.09821	113.09872	177.55138	717.33069	118.48897	174.45917	625.07245	108.20094	215.04829	771.35730	66.90373	209.28862	671.07971	65.44807	191.17424	580.71686	52.52246	107.90367	769.26691	-228.45857	102.09293	659.70544	-223.13094	93.36339	582.98114	-212.95808	165.64832	824.84467	-210.56166	167.10249	718.84320	-217.26787	159.99547	625.56519	-209.16298	216.87553	769.29944	-158.55159	207.95219	665.77570	-147.48961	187.00786	576.16522	-141.88036	77.89592	485.38034	-209.00600	88.71413	479.09720	109.32275	64.23959	374.16550	128.77496	55.18471	268.89709	125.74610	54.60124	182.66792	114.52306	124.70634	393.16345	63.73277	116.36386	315.62308	62.80370	108.09831	232.90102	65.04791	68.14630	360.27759	-228.51970	65.53448	279.07794	-225.41203	62.32259	194.03645	-216.67946	121.11482	400.70700	-155.90190	188.90068	1634.77368	-108.59831	75.94795	1608.30310	-128.44414	179.93996	1626.14868	39.19380	43.55507	1597.26965	35.41461	64.21107	1394.68750	-292.40588	26.86848	1308.57092	-584.44885	60.06644	1338.37878	274.35901	47.33023	1295.52930	432.43396	
45	0.14667	190.43684	1375.48816	-47.41743	242.30678	1204.68347	-50.70546	89.96941	1425.11853	89.61224	88.29524	1433.77661	-191.90395	50.60568	1429.65247	-46.25026	15.73474	1135.15710	-51.77330	-7.31936	1327.59521	45.30952	181.13716	946.85413	61.85704	176.53209	953.16461	-165.48042	0.49506	956.08606	0.22516	-1.02026	955.01642	-97.85695	110.33463	868.98840	-216.58586	110.71564	858.21039	119.55405	104.80103	872.91626	-132.32832	104.55824	868.56787	26.59811	63.83966	466.77768	-83.59868	65.72704	471.77853	-15.29893	72.09024	447.55432	-212.20644	78.00232	450.96146	111.66338	62.24231	437.97980	-92.91960	65.94987	441.39145	-6.33775	57.50395	91.06728	-206.98250	55.91762	87.31995	108.55804	73.54536	98.58624	-121.34712	80.61383	92.83023	24.94110	-14.73038	59.94087	-159.30833	-15.88261	62.92930	60.12270	168.39392	30.76785	-243.66222	165.76549	40.81913	157.66461	212.96620	64.88256	-176.11546	214.55049	65.14459	91.08792	63.46638	1298.47717	348.32397	94.44513	1313.70361	593.22754	60.72368	1248.67896	587.76849	58.24951	1302.52563	667.97400	43.70028	1302.95581	-436.03809	37.71070	1264.90308	-685.38104	70.19070	1326.37585	-679.43719	31.40680	1321.32300	-758.78619	108.40215	762.91864	132.50952	106.44121	669.24219	131.24533	100.16878	577.74615	118.71231	170.85765	818.11725	113.11426	177.55406	717.33423	118.48337	174.45578	625.06519	108.18465	215.02510	771.32623	66.88080	209.28749	671.07892	65.44781	191.17232	580.71100	52.52072	107.91586	769.26709	-228.45854	102.09169	659.70575	-223.13115	93.36427	582.98047	-212.95961	165.73277	824.85449	-210.57295	166.89063	718.82404	-217.33421	159.65237	625.59845	-208.91365	216.90590	769.30591	-158.55757	207.94032	665.77692	-147.48555	187.04079	576.17633	-141.88240	77.90833	485.38763	-208.97285	88.70454	479.07275	109.31792	64.26251	374.18240	128.78479	55.18425	268.89609	125.74599	54.60097	182.66847	114.52330	124.69414	393.16168	63.76010	116.30884	315.57169	62.81233	108.19194	232.91298	65.06551	68.08733	360.19904	-228.53539	65.51808	279.06796	-225.41850	62.33116	194.03401	-216.68233	121.13707	400.71368	-155.90370	188.86653	1634.78333	-108.60655	75.69934	1608.20972	-128.41685	179.94820	1626.14905	39.19409	43.58915	1597.26782	35.45201	64.21542	1394.67676	-292.41821	26.86794	1308.57153	-584.44580	60.06348	1338.34741	274.33102	47.29082	1295.53455	432.43689	
46	0.15000	190.43745	1375.48328	-47.42168	242.30498	1204.68030	-50.70699	89.96744	1425.09900	89.61873	88.31146	1433.77747	-191.92464	50.64726	1429.61084	-46.25502	15.73378	1135.15723	-51.77278	-7.31932	1327.59546	45.30881	181.14330	946.88135	61.87808	176.51765	953.13300	-165.46260	0.49307	956.04816	0.26028	-1.02885	954.99829	-97.82405	110.35149	869.01776	-216.63329	110.71179	858.21466	119.55612	104.80138	872.88245	-132.28276	104.57295	868.57477	26.64479	63.85617	466.62686	-83.51418	65.71117	471.83209	-15.30461	72.15895	447.71854	-212.40193	78.01074	450.96283	111.67432	62.20233	438.01605	-92.91539	65.95537	441.38562	-6.33876	57.50235	91.07937	-206.98567	55.90143	87.31573	108.52924	73.47270	98.62779	-121.30870	80.62708	92.86341	24.93535	-14.73033	59.94111	-159.31175	-15.86373	62.95655	60.13881	168.36699	30.78834	-243.65907	165.74893	40.85090	157.66817	212.96849	64.88350	-176.07600	214.55061	65.16055	91.07320	63.48059	1298.49805	348.32465	94.40941	1313.71912	593.18195	60.72580	1248.66821	587.76764	58.24826	1302.52563	667.97382	43.70457	1302.94214	-436.04205	37.69253	1264.92798	-685.36810	70.17285	1326.38513	-679.44128	31.41079	1321.32239	-758.79053	108.37154	762.94159	132.51740	106.43921	669.23041	131.24490	100.17050	577.72278	118.72247	170.86501	818.11243	113.13020	177.56511	717.37012	118.48965	174.49939	625.05005	108.18396	215.09532	771.37769	66.87833	209.28310	671.09741	65.45294	191.21938	580.70020	52.49841	107.94579	769.27136	-228.43199	102.10956	659.72784	-223.14091	93.37862	583.01233	-212.92339	165.26219	824.79083	-210.55763	167.05392	718.84619	-217.27946	159.95309	625.53687	-209.13374	216.89070	769.32080	-158.56029	207.93001	665.80206	-147.48726	187.08510	576.19128	-141.85255	77.91098	485.38315	-208.98415	88.74455	479.06821	109.29330	64.26996	374.16211	128.77251	55.18678	268.91837	125.80354	54.59991	182.64717	114.53555	124.69818	393.18188	63.73790	116.34981	315.61768	62.81583	108.19420	232.93614	65.06999	68.10172	360.26367	-228.48546	65.53494	279.07391	-225.41090	62.33714	194.04018	-216.68083	121.12248	400.76099	-155.90511	188.87215	1634.80298	-108.63548	75.63531	1608.22070	-128.42314	179.92903	1626.16321	39.17056	43.60248	1597.26672	35.47012	64.19720	1394.66650	-292.39594	26.83578	1308.60327	-584.43829	60.06065	1338.34229	274.32999	47.29703	1295.55432	432.44397	
47	0.15333	190.38203	1375.50403	-47.41679	242.28758	1204.65784	-50.72862	89.96469	1425.10425	89.61783	88.30981	1433.77771	-191.92894	50.60817	1429.62524	-46.24199	15.73225	1135.14075	-51.76930	-7.31927	1327.59546	45.30963	181.13741	946.86145	61.90877	176.53291	953.17511	-165.43547	0.49381	956.05890	0.27614	-1.01965	954.99951	-97.81175	110.34497	869.04834	-216.63338	110.70027	858.21088	119.56868	104.81548	872.91376	-132.28185	104.57220	868.56268	26.64453	63.83588	466.77289	-83.58015	65.72427	471.82941	-15.29445	72.14819	447.77054	-212.41185	78.00262	450.97980	111.67503	62.22348	438.01962	-92.90450	65.95621	441.38586	-6.33870	57.53654	91.07137	-206.99736	55.91275	87.33447	108.53091	73.45731	98.67603	-121.33376	80.60004	92.87321	24.90942	-14.72981	59.94105	-159.30846	-15.86951	62.93616	60.12123	168.37999	30.80861	-243.65138	165.73529	40.86550	157.67429	212.94588	64.89456	-176.09190	214.53423	65.18608	91.07674	63.46626	1298.50122	348.33307	94.35603	1313.74841	593.20404	60.68060	1248.71765	587.78870	58.20526	1302.54565	667.98926	43.69782	1302.97913	-436.03772	37.68336	1264.92468	-685.36462	70.16594	1326.40491	-679.44019	31.38134	1321.31201	-758.81927	108.36803	762.95306	132.51035	106.42513	669.22961	131.26016	100.15894	577.74280	118.73061	170.81247	818.37286	113.49435	177.54988	717.34778	118.51024	174.49918	625.09039	108.22310	215.08485	771.38257	66.88936	209.32664	670.98798	65.46561	191.20677	580.71436	52.52969	107.94234	769.31311	-228.46730	102.12381	659.74792	-223.15227	93.34064	582.99060	-212.96126	165.65138	824.91687	-210.56181	167.07634	718.87640	-217.27388	159.65536	625.60449	-208.92250	216.87480	769.33862	-158.56319	207.90205	665.79681	-147.49010	187.07915	576.20880	-141.85368	77.91397	485.40842	-208.97841	88.73506	479.10422	109.32483	64.26071	374.17624	128.77589	55.19637	268.95752	125.81425	54.59985	182.64641	114.53595	124.66864	393.20474	63.78261	116.34804	315.63998	62.82028	108.08629	232.89192	65.06387	68.13736	360.30984	-228.51591	65.51370	279.10092	-225.40092	62.33171	194.07471	-216.69820	121.09859	400.74088	-155.90215	188.86137	1634.80505	-108.60954	75.60904	1608.20911	-128.42436	179.90337	1626.20972	39.16995	43.60094	1597.26685	35.47052	64.18694	1394.67432	-292.44482	26.83308	1308.59326	-584.43671	60.02274	1338.33850	274.33493	47.29797	1295.55481	432.44446	
